<svg width="125" height="60" viewBox="0 0 125 60" fill="none" xmlns="http://www.w3.org/2000/svg">
<path d="M0 0.833336H125V59.082H0V0.833336Z" fill="white"/>
<path fill-rule="evenodd" clip-rule="evenodd" d="M120 5.89844H5V54.0169H120V5.89844ZM0 0.833336V59.082H125V0.833336H0Z" fill="#E66767"/>
<path d="M17.7637 37.4663C17.9199 37.5158 18.0762 37.5504 18.2324 37.5702C18.3887 37.5801 18.5449 37.585 18.7012 37.585C19.0918 37.585 19.4678 37.5306 19.8291 37.4218C20.1904 37.313 20.5273 37.1596 20.8398 36.9618C21.1621 36.754 21.4453 36.5067 21.6895 36.2198C21.9434 35.923 22.1484 35.5966 22.3047 35.2404L25.2344 38.2231C24.8633 38.7573 24.4336 39.2371 23.9453 39.6625C23.4668 40.0879 22.9443 40.449 22.3779 40.7458C21.8213 41.0425 21.2305 41.2651 20.6055 41.4135C19.9902 41.5718 19.3555 41.651 18.7012 41.651C17.5977 41.651 16.5576 41.4432 15.5811 41.0277C14.6143 40.6122 13.7646 40.0335 13.0322 39.2915C12.3096 38.5496 11.7383 37.6691 11.3184 36.6502C10.8984 35.6213 10.6885 34.4935 10.6885 33.2668C10.6885 32.0104 10.8984 30.8629 11.3184 29.8241C11.7383 28.7854 12.3096 27.9 13.0322 27.1679C13.7646 26.4359 14.6143 25.867 15.5811 25.4614C16.5576 25.0558 17.5977 24.853 18.7012 24.853C19.3555 24.853 19.9951 24.9322 20.6201 25.0904C21.2451 25.2487 21.8359 25.4763 22.3926 25.773C22.959 26.0698 23.4863 26.4359 23.9746 26.8711C24.4629 27.2965 24.8926 27.7763 25.2637 28.3105L17.7637 37.4663ZM19.8145 29.1119C19.6289 29.0426 19.4434 28.9981 19.2578 28.9783C19.082 28.9585 18.8965 28.9486 18.7012 28.9486C18.1543 28.9486 17.6367 29.0525 17.1484 29.2602C16.6699 29.4581 16.25 29.745 15.8887 30.1209C15.5371 30.4968 15.2588 30.9519 15.0537 31.4861C14.8486 32.0104 14.7461 32.604 14.7461 33.2668C14.7461 33.4152 14.751 33.5834 14.7607 33.7714C14.7803 33.9593 14.8047 34.1522 14.834 34.3501C14.873 34.538 14.917 34.7211 14.9658 34.8991C15.0146 35.0772 15.0781 35.2355 15.1562 35.374L19.8145 29.1119Z" fill="#E66767"/>
<path d="M32.3682 41.3542H28.3691V29.4977H26.4209V25.4614H28.3691V24.7046C28.3691 23.7252 28.5498 22.8052 28.9111 21.9445C29.2822 21.0839 29.7852 20.337 30.4199 19.7038C31.0645 19.0608 31.8115 18.5563 32.6611 18.1902C33.5107 17.8143 34.4189 17.6263 35.3857 17.6263H38.3887V21.6626H35.3857C34.9561 21.6626 34.5557 21.7417 34.1846 21.9C33.8232 22.0484 33.5059 22.2611 33.2324 22.5381C32.9688 22.8052 32.7588 23.1267 32.6025 23.5026C32.4463 23.8687 32.3682 24.2693 32.3682 24.7046V25.4614H37.2754V29.4977H32.3682V41.3542Z" fill="#E66767"/>
<path d="M54.0479 33.2668C54.0479 34.454 53.8379 35.5619 53.418 36.5908C52.998 37.6098 52.4268 38.4952 51.7041 39.247C50.9814 39.989 50.1318 40.5776 49.1553 41.0129C48.1885 41.4383 47.1484 41.651 46.0352 41.651C44.9316 41.651 43.8916 41.4383 42.915 41.0129C41.9482 40.5776 41.0986 39.989 40.3662 39.247C39.6436 38.4952 39.0723 37.6098 38.6523 36.5908C38.2324 35.5619 38.0225 34.454 38.0225 33.2668C38.0225 32.0599 38.2324 30.942 38.6523 29.9132C39.0723 28.8843 39.6436 27.9989 40.3662 27.257C41.0986 26.5051 41.9482 25.9165 42.915 25.4911C43.8916 25.0657 44.9316 24.853 46.0352 24.853C47.1484 24.853 48.1885 25.0558 49.1553 25.4614C50.1318 25.8571 50.9814 26.426 51.7041 27.1679C52.4268 27.9 52.998 28.7854 53.418 29.8241C53.8379 30.853 54.0479 32.0005 54.0479 33.2668ZM50.0195 33.2668C50.0195 32.6139 49.9121 32.0253 49.6973 31.501C49.4922 30.9668 49.209 30.5117 48.8477 30.1358C48.4863 29.7499 48.0615 29.4581 47.5732 29.2602C47.0947 29.0525 46.582 28.9486 46.0352 28.9486C45.4883 28.9486 44.9707 29.0525 44.4824 29.2602C44.0039 29.4581 43.584 29.7499 43.2227 30.1358C42.8711 30.5117 42.5928 30.9668 42.3877 31.501C42.1826 32.0253 42.0801 32.6139 42.0801 33.2668C42.0801 33.8802 42.1826 34.449 42.3877 34.9733C42.5928 35.4976 42.8711 35.9527 43.2227 36.3385C43.584 36.7243 44.0039 37.031 44.4824 37.2586C44.9707 37.4762 45.4883 37.585 46.0352 37.585C46.582 37.585 47.0947 37.4811 47.5732 37.2734C48.0615 37.0657 48.4863 36.7738 48.8477 36.3979C49.209 36.022 49.4922 35.5669 49.6973 35.0327C49.9121 34.4985 50.0195 33.9099 50.0195 33.2668Z" fill="#E66767"/>
<path d="M71.4209 33.2668C71.4209 34.454 71.2109 35.5619 70.791 36.5908C70.3711 37.6098 69.7998 38.4952 69.0771 39.247C68.3545 39.989 67.5049 40.5776 66.5283 41.0129C65.5615 41.4383 64.5215 41.651 63.4082 41.651C62.3047 41.651 61.2646 41.4383 60.2881 41.0129C59.3213 40.5776 58.4717 39.989 57.7393 39.247C57.0166 38.4952 56.4453 37.6098 56.0254 36.5908C55.6055 35.5619 55.3955 34.454 55.3955 33.2668C55.3955 32.0599 55.6055 30.942 56.0254 29.9132C56.4453 28.8843 57.0166 27.9989 57.7393 27.257C58.4717 26.5051 59.3213 25.9165 60.2881 25.4911C61.2646 25.0657 62.3047 24.853 63.4082 24.853C64.5215 24.853 65.5615 25.0558 66.5283 25.4614C67.5049 25.8571 68.3545 26.426 69.0771 27.1679C69.7998 27.9 70.3711 28.7854 70.791 29.8241C71.2109 30.853 71.4209 32.0005 71.4209 33.2668ZM67.3926 33.2668C67.3926 32.6139 67.2852 32.0253 67.0703 31.501C66.8652 30.9668 66.582 30.5117 66.2207 30.1358C65.8594 29.7499 65.4346 29.4581 64.9463 29.2602C64.4678 29.0525 63.9551 28.9486 63.4082 28.9486C62.8613 28.9486 62.3438 29.0525 61.8555 29.2602C61.377 29.4581 60.957 29.7499 60.5957 30.1358C60.2441 30.5117 59.9658 30.9668 59.7607 31.501C59.5557 32.0253 59.4531 32.6139 59.4531 33.2668C59.4531 33.8802 59.5557 34.449 59.7607 34.9733C59.9658 35.4976 60.2441 35.9527 60.5957 36.3385C60.957 36.7243 61.377 37.031 61.8555 37.2586C62.3438 37.4762 62.8613 37.585 63.4082 37.585C63.9551 37.585 64.4678 37.4811 64.9463 37.2734C65.4346 37.0657 65.8594 36.7738 66.2207 36.3979C66.582 36.022 66.8652 35.5669 67.0703 35.0327C67.2852 34.4985 67.3926 33.9099 67.3926 33.2668Z" fill="#E66767"/>
<path d="M88.7939 41.3542H87.8271L86.2744 39.1728C85.8936 39.5191 85.4883 39.8455 85.0586 40.1522C84.6387 40.449 84.1943 40.7111 83.7256 40.9387C83.2568 41.1563 82.7734 41.3294 82.2754 41.458C81.7871 41.5867 81.2891 41.651 80.7812 41.651C79.6777 41.651 78.6377 41.4432 77.6611 41.0277C76.6943 40.6023 75.8447 40.0186 75.1123 39.2767C74.3896 38.5248 73.8184 37.6394 73.3984 36.6205C72.9785 35.5916 72.7686 34.4737 72.7686 33.2668C72.7686 32.0698 72.9785 30.9569 73.3984 29.928C73.8184 28.8992 74.3896 28.0088 75.1123 27.257C75.8447 26.5051 76.6943 25.9165 77.6611 25.4911C78.6377 25.0657 79.6777 24.853 80.7812 24.853C81.1328 24.853 81.4941 24.8827 81.8652 24.942C82.2461 25.0014 82.6123 25.1003 82.9639 25.2388C83.3252 25.3674 83.6621 25.5406 83.9746 25.7582C84.2871 25.9758 84.5508 26.2429 84.7656 26.5595V19.1399H88.7939V41.3542ZM84.7656 33.2668C84.7656 32.7128 84.6582 32.1786 84.4434 31.6642C84.2383 31.1399 83.9551 30.6799 83.5938 30.2841C83.2324 29.8785 82.8076 29.557 82.3193 29.3196C81.8408 29.0723 81.3281 28.9486 80.7812 28.9486C80.2344 28.9486 79.7168 29.0476 79.2285 29.2454C78.75 29.4433 78.3301 29.7302 77.9688 30.1061C77.6172 30.4721 77.3389 30.9222 77.1338 31.4564C76.9287 31.9907 76.8262 32.5941 76.8262 33.2668C76.8262 33.8505 76.9287 34.4045 77.1338 34.9288C77.3389 35.4531 77.6172 35.9131 77.9688 36.3089C78.3301 36.7046 78.75 37.0162 79.2285 37.2437C79.7168 37.4713 80.2344 37.585 80.7812 37.585C81.3281 37.585 81.8408 37.4663 82.3193 37.2289C82.8076 36.9816 83.2324 36.66 83.5938 36.2643C83.9551 35.8587 84.2383 35.3987 84.4434 34.8843C84.6582 34.36 84.7656 33.8208 84.7656 33.2668Z" fill="#E66767"/>
<path d="M115.993 40.8618L114.617 30.408H114.655C115.059 30.408 115.387 30.0762 115.387 29.6669V14.5978C115.387 14.3374 115.253 14.0971 115.033 13.963C114.813 13.8288 114.541 13.8209 114.314 13.9421C111.461 15.467 109.676 18.4651 109.676 21.7335V28.0874C109.676 29.3689 110.701 30.408 111.967 30.408H112.14L110.764 40.8617C110.664 41.6247 110.894 42.3956 111.394 42.9747C111.895 43.5539 112.619 43.8867 113.379 43.8867C114.139 43.8867 114.862 43.5539 115.363 42.9747C115.864 42.3957 116.093 41.6248 115.993 40.8618Z" fill="#E66767"/>
<path d="M104.529 13.4961C103.974 13.4961 103.525 13.9511 103.525 14.5133V20.1956H102.521V14.5133C102.521 13.9511 102.072 13.4961 101.517 13.4961C100.962 13.4961 100.513 13.9511 100.513 14.5133V20.1956H99.5084V14.5133C99.5083 13.9511 99.0592 13.4961 98.5042 13.4961C97.9491 13.4961 97.5 13.9511 97.5 14.5133V23.6945C97.5 25.2035 98.7071 26.4263 100.197 26.4263H100.419L98.8366 40.8538C98.7523 41.6257 98.9964 42.3976 99.5073 42.9768C100.019 43.5559 100.75 43.8867 101.517 43.8867C102.284 43.8867 103.014 43.5559 103.526 42.9768C104.037 42.3976 104.281 41.6257 104.197 40.8538L102.614 26.4264H102.837C104.326 26.4264 105.534 25.2035 105.534 23.6945V14.5133C105.533 13.9511 105.084 13.4961 104.529 13.4961Z" fill="#E66767"/>
</svg>
